<svg width="141" height="19" viewBox="0 0 141 19" fill="none" xmlns="http://www.w3.org/2000/svg">
<path d="M2.85714 10.201H0V18H20V10.201H17.1429V15.164H2.85714V10.201Z" fill="#69C200"/>
<path fill-rule="evenodd" clip-rule="evenodd" d="M10 5.62372L1.71505 12.3755L0 10.1535L9.97815 2.02186L9.99502 2L10 2.00405L10.005 2L10.0218 2.02186L20 10.1535L18.285 12.3755L10 5.62372Z" fill="#69C200"/>
<path d="M32.9917 17.8225H25.3333V4.85292H32.9917V7.10619H28.1529V9.95383H32.6552V12.2071H28.1529V15.5515H32.9917V17.8225Z" fill="#263238"/>
<path d="M43.6244 14.2209C43.6244 15.3918 43.1908 16.3144 42.3237 16.9886C41.4627 17.6629 40.2621 18 38.7219 18C37.303 18 36.0478 17.7397 34.9564 17.2193V14.6644C35.8538 15.0547 36.6117 15.3297 37.2302 15.4894C37.8548 15.6491 38.4248 15.7289 38.9402 15.7289C39.5587 15.7289 40.0316 15.6136 40.3591 15.383C40.6926 15.1523 40.8593 14.8093 40.8593 14.3539C40.8593 14.0996 40.7866 13.8749 40.641 13.6797C40.4955 13.4786 40.2803 13.2864 39.9953 13.1031C39.7163 12.9197 39.1433 12.627 38.2762 12.2248C37.4637 11.8523 36.8543 11.4945 36.448 11.1514C36.0418 10.8084 35.7173 10.4092 35.4748 9.95383C35.2323 9.49844 35.111 8.96617 35.111 8.35702C35.111 7.20969 35.5081 6.30779 36.3025 5.65132C37.1029 4.99486 38.2065 4.66663 39.6133 4.66663C40.3045 4.66663 40.9624 4.74647 41.587 4.90615C42.2176 5.06583 42.8755 5.29056 43.5607 5.58035L42.6511 7.7183C41.9417 7.43442 41.3535 7.2363 40.8866 7.12393C40.4258 7.01157 39.971 6.95538 39.5223 6.95538C38.9887 6.95538 38.5794 7.07662 38.2944 7.3191C38.0094 7.56158 37.8669 7.87798 37.8669 8.26831C37.8669 8.51079 37.9245 8.7237 38.0397 8.90703C38.1549 9.08446 38.3368 9.25892 38.5855 9.43043C38.8401 9.59603 39.4374 9.89765 40.3773 10.3353C41.6203 10.9149 42.4723 11.4974 42.9331 12.0829C43.3939 12.6625 43.6244 13.3751 43.6244 14.2209Z" fill="#263238"/>
<path d="M51.1645 17.8225H48.3449V7.14168H44.734V4.85292H54.7755V7.14168H51.1645V17.8225Z" fill="#263238"/>
<path d="M64.9624 17.8225L63.9983 14.7354H59.1504L58.1863 17.8225H55.1484L59.8416 4.79969H63.2888L68.0003 17.8225H64.9624ZM63.3252 12.4289C62.4339 9.63151 61.9306 8.04949 61.8154 7.68282C61.7062 7.31614 61.6274 7.02635 61.5789 6.81344C61.3788 7.57045 60.8058 9.44226 59.8598 12.4289H63.3252Z" fill="#263238"/>
<path d="M74.8128 17.8225H71.9932V7.14168H68.3823V4.85292H78.4238V7.14168H74.8128V17.8225Z" fill="#263238"/>
<path d="M80.4702 17.8225V4.85292H83.2899V17.8225H80.4702Z" fill="#263238"/>
<path d="M97.3333 17.8225H94.1317L90.6481 12.3579L89.4566 13.1918V17.8225H86.637V4.85292H89.4566V10.7877L90.5663 9.26188L94.1681 4.85292H97.2969L92.6582 10.5926L97.3333 17.8225Z" fill="#263238"/>
<rect x="105" width="36" height="19" rx="6" fill="#69C200"/>
<path d="M116.53 10.4658H114.719V9.32324H116.53C116.81 9.32324 117.038 9.27767 117.214 9.18652C117.39 9.09212 117.518 8.96191 117.6 8.7959C117.681 8.62988 117.722 8.44271 117.722 8.23438C117.722 8.02279 117.681 7.82585 117.6 7.64355C117.518 7.46126 117.39 7.31478 117.214 7.2041C117.038 7.09342 116.81 7.03809 116.53 7.03809H115.227V13H113.762V5.89062H116.53C117.087 5.89062 117.564 5.99154 117.961 6.19336C118.361 6.39193 118.667 6.66699 118.879 7.01855C119.09 7.37012 119.196 7.77214 119.196 8.22461C119.196 8.68359 119.09 9.08073 118.879 9.41602C118.667 9.7513 118.361 10.0101 117.961 10.1924C117.564 10.3747 117.087 10.4658 116.53 10.4658ZM120.207 5.89062H122.858C123.402 5.89062 123.869 5.97201 124.26 6.13477C124.654 6.29753 124.956 6.53841 125.168 6.85742C125.38 7.17643 125.485 7.56868 125.485 8.03418C125.485 8.41504 125.42 8.74219 125.29 9.01562C125.163 9.28581 124.982 9.51204 124.748 9.69434C124.517 9.87337 124.245 10.0166 123.933 10.124L123.469 10.3682H121.164L121.154 9.22559H122.868C123.125 9.22559 123.339 9.18001 123.508 9.08887C123.677 8.99772 123.804 8.87077 123.889 8.70801C123.977 8.54525 124.021 8.35645 124.021 8.1416C124.021 7.91374 123.978 7.7168 123.894 7.55078C123.809 7.38477 123.68 7.25781 123.508 7.16992C123.335 7.08203 123.119 7.03809 122.858 7.03809H121.672V13H120.207V5.89062ZM124.182 13L122.561 9.83105L124.108 9.82129L125.749 12.9316V13H124.182ZM132.453 9.2793V9.61621C132.453 10.1566 132.38 10.6416 132.233 11.0713C132.087 11.501 131.88 11.8672 131.613 12.1699C131.346 12.4694 131.027 12.6989 130.656 12.8584C130.288 13.0179 129.88 13.0977 129.431 13.0977C128.985 13.0977 128.576 13.0179 128.205 12.8584C127.837 12.6989 127.518 12.4694 127.248 12.1699C126.978 11.8672 126.768 11.501 126.618 11.0713C126.472 10.6416 126.398 10.1566 126.398 9.61621V9.2793C126.398 8.73568 126.472 8.25065 126.618 7.82422C126.765 7.39453 126.971 7.02832 127.238 6.72559C127.508 6.42285 127.827 6.19173 128.195 6.03223C128.566 5.87272 128.975 5.79297 129.421 5.79297C129.87 5.79297 130.279 5.87272 130.646 6.03223C131.018 6.19173 131.337 6.42285 131.604 6.72559C131.874 7.02832 132.082 7.39453 132.229 7.82422C132.378 8.25065 132.453 8.73568 132.453 9.2793ZM130.974 9.61621V9.26953C130.974 8.89193 130.939 8.5599 130.871 8.27344C130.803 7.98698 130.702 7.74609 130.568 7.55078C130.435 7.35547 130.272 7.20898 130.08 7.11133C129.888 7.01042 129.668 6.95996 129.421 6.95996C129.174 6.95996 128.954 7.01042 128.762 7.11133C128.573 7.20898 128.412 7.35547 128.278 7.55078C128.148 7.74609 128.049 7.98698 127.98 8.27344C127.912 8.5599 127.878 8.89193 127.878 9.26953V9.61621C127.878 9.99056 127.912 10.3226 127.98 10.6123C128.049 10.8988 128.15 11.1413 128.283 11.3398C128.417 11.5352 128.579 11.6833 128.771 11.7842C128.964 11.8851 129.183 11.9355 129.431 11.9355C129.678 11.9355 129.898 11.8851 130.09 11.7842C130.282 11.6833 130.443 11.5352 130.573 11.3398C130.703 11.1413 130.803 10.8988 130.871 10.6123C130.939 10.3226 130.974 9.99056 130.974 9.61621Z" fill="white"/>
</svg>
